<svg width="254" height="227" viewBox="0 0 254 227" fill="none" xmlns="http://www.w3.org/2000/svg">
<g clip-path="url(#clip0_169_349)">
<mask id="mask0_169_349" style="mask-type:luminance" maskUnits="userSpaceOnUse" x="0" y="0" width="254" height="227">
<path d="M253.07 0H0V227H253.07V0Z" fill="white"/>
</mask>
<g mask="url(#mask0_169_349)">
<g opacity="0.5">
<path d="M35.4297 112.911L154.385 44.5641L35.4297 112.911Z" fill="white"/>
<path d="M35.4297 112.911L154.385 44.5641" stroke="#3EBF87" stroke-width="29.2537" stroke-linecap="round"/>
</g>
<g opacity="0.5">
<path d="M63.7241 157.739L182.68 89.3914L63.7241 157.739Z" fill="white"/>
<path d="M63.7241 157.739L182.68 89.3914" stroke="#3EBF87" stroke-width="29.2537" stroke-linecap="round"/>
</g>
<g opacity="0.5">
<path d="M213.152 72.2165L222.423 66.8196L213.152 72.2165Z" fill="white"/>
<path d="M213.152 72.2165L222.423 66.8196" stroke="#3EBF87" stroke-width="29.2537" stroke-linecap="round"/>
</g>
<g opacity="0.5">
<path d="M105.691 194.618L196.033 141.85L105.691 194.618Z" fill="white"/>
<path d="M105.691 194.618L196.033 141.85" stroke="#3EBF87" stroke-width="29.2537" stroke-linecap="round"/>
</g>
<path d="M218.23 146.7C219.678 146.847 220.733 148.141 220.586 149.589C220.439 151.036 219.145 152.092 217.697 151.945C216.25 151.797 215.194 150.503 215.341 149.056C215.488 147.608 216.783 146.553 218.23 146.7Z" stroke="#3EBF87" stroke-width="1.36186"/>
<path d="M64.6326 200.889C67.0126 201.131 68.7485 203.26 68.5066 205.64C68.2648 208.02 66.136 209.756 63.7561 209.514C61.3761 209.272 59.6402 207.143 59.882 204.764C60.1239 202.384 62.2527 200.648 64.6326 200.889Z" stroke="#3EBF87" stroke-width="2.23948"/>
<path d="M124.8 23.0169C127.18 23.2588 128.916 25.3875 128.674 27.7675C128.432 30.1475 126.304 31.8834 123.924 31.6415C121.544 31.3997 119.808 29.2709 120.05 26.891C120.291 24.511 122.42 22.7751 124.8 23.0169Z" stroke="#3EBF87" stroke-width="2.23948"/>
<path d="M24.7043 79.4512C25.7972 79.4512 26.6846 80.3385 26.6846 81.4314C26.6846 82.5243 25.7972 83.4116 24.7043 83.4116C23.6115 83.4116 22.7241 82.5243 22.7241 81.4314C22.7241 80.3385 23.6115 79.4512 24.7043 79.4512Z" stroke="#3EBF87" stroke-width="1.63697"/>
<path d="M178.507 208.585C179.599 208.585 180.487 209.472 180.487 210.565C180.487 211.658 179.599 212.545 178.507 212.545C177.414 212.545 176.526 211.658 176.526 210.565C176.526 209.472 177.414 208.585 178.507 208.585Z" stroke="#3EBF87" stroke-width="1.63697"/>
<path d="M201.404 22.4678L203.055 14.6929" stroke="#3EBF87" stroke-width="0.953781"/>
<path d="M198.471 17.7993L206.246 19.4499" stroke="#3EBF87" stroke-width="0.953781"/>
<path d="M33.0596 152.213L34.3933 144.378" stroke="#3EBF87" stroke-width="0.953781"/>
<path d="M29.9395 147.667L37.7749 149" stroke="#3EBF87" stroke-width="0.953781"/>
<path d="M198.318 186.585L199.139 178.679" stroke="#3EBF87" stroke-width="0.953781"/>
<path d="M194.909 182.252L202.815 183.072" stroke="#3EBF87" stroke-width="0.953781"/>
<path d="M126.57 56.3632C158.11 56.3632 183.717 81.971 183.717 113.511C183.717 145.05 158.11 170.658 126.57 170.658C95.0302 170.658 69.4224 145.05 69.4224 113.511C69.4224 81.971 95.0302 56.3632 126.57 56.3632Z" fill="#3EBF87"/>
<path d="M126.537 61.7676C155.093 61.7676 178.279 84.9534 178.279 113.51C178.279 142.067 155.093 165.253 126.537 165.253C97.9798 165.253 74.7939 142.067 74.7939 113.51C74.7939 84.9534 97.9798 61.7676 126.537 61.7676Z" fill="#3EBF87"/>
<path d="M103.168 115.408L117.157 129.079L149.904 96.3327" stroke="white" stroke-width="5.72269"/>
</g>
</g>
<defs>
<clipPath id="clip0_169_349">
<rect width="253.07" height="227" fill="white"/>
</clipPath>
</defs>
</svg>
