<svg width="15" height="17" viewBox="0 0 15 17" fill="none" xmlns="http://www.w3.org/2000/svg">
<path d="M9.7973 4.41066L2.47991 12.2674L2.00143 14.0199L3.60043 13.5235L10.9421 5.64072L9.7973 4.41066ZM11.0457 3.0702L12.1905 4.29939L13.2576 3.15365C13.3335 3.07214 13.3762 2.96161 13.3762 2.84635C13.3762 2.7311 13.3335 2.62057 13.2576 2.53906L12.6844 1.92446C12.6085 1.84298 12.5056 1.7972 12.3982 1.7972C12.2909 1.7972 12.1879 1.84298 12.112 1.92446L11.0466 3.0702H11.0457ZM13.83 0.695273L14.4024 1.30987C14.7819 1.71741 14.9951 2.27009 14.9951 2.84635C14.9951 3.42262 14.7819 3.9753 14.4024 4.38284L4.45054 15.0691L1.03392 16.1297C0.894659 16.1728 0.747169 16.175 0.606851 16.136C0.466532 16.097 0.338531 16.0183 0.23621 15.9081C0.133889 15.7979 0.0610005 15.6602 0.0251534 15.5094C-0.0106936 15.3586 -0.00818463 15.2003 0.0324185 15.0509L1.04283 11.352L10.9688 0.694403C11.3484 0.286982 11.8631 0.0581055 12.3998 0.0581055C12.9365 0.0581055 13.4513 0.286982 13.8308 0.694403L13.83 0.695273Z" fill="#53B175"/>
</svg>
