<svg width="24" height="20" viewBox="0 0 24 20" fill="none" xmlns="http://www.w3.org/2000/svg">
<path d="M12.4375 10.1042C12.1268 10.1042 11.875 9.89432 11.875 9.63544C11.875 9.37655 12.1268 9.16669 12.4375 9.16669C12.7482 9.16669 13 9.37655 13 9.63544C13 9.89432 12.7482 10.1042 12.4375 10.1042Z" fill="#121323"/>
<path d="M5.4375 10.1042C5.12684 10.1042 4.875 9.89432 4.875 9.63544C4.875 9.37655 5.12684 9.16669 5.4375 9.16669C5.74816 9.16669 6 9.37655 6 9.63544C6 9.89432 5.74816 10.1042 5.4375 10.1042Z" fill="#121323"/>
<path d="M19.4375 10.1042C19.1268 10.1042 18.875 9.89432 18.875 9.63544C18.875 9.37655 19.1268 9.16669 19.4375 9.16669C19.7482 9.16669 20 9.37655 20 9.63544C20 9.89432 19.7482 10.1042 19.4375 10.1042Z" fill="#121323"/>
<path d="M12.4375 10.1042C12.1268 10.1042 11.875 9.89432 11.875 9.63544C11.875 9.37655 12.1268 9.16669 12.4375 9.16669C12.7482 9.16669 13 9.37655 13 9.63544C13 9.89432 12.7482 10.1042 12.4375 10.1042Z" stroke="#121323" stroke-width="1.5" stroke-linecap="round" stroke-linejoin="round"/>
<path d="M5.4375 10.1042C5.12684 10.1042 4.875 9.89432 4.875 9.63544C4.875 9.37655 5.12684 9.16669 5.4375 9.16669C5.74816 9.16669 6 9.37655 6 9.63544C6 9.89432 5.74816 10.1042 5.4375 10.1042Z" stroke="#121323" stroke-width="1.5" stroke-linecap="round" stroke-linejoin="round"/>
<path d="M19.4375 10.1042C19.1268 10.1042 18.875 9.89432 18.875 9.63544C18.875 9.37655 19.1268 9.16669 19.4375 9.16669C19.7482 9.16669 20 9.37655 20 9.63544C20 9.89432 19.7482 10.1042 19.4375 10.1042Z" stroke="#121323" stroke-width="1.5" stroke-linecap="round" stroke-linejoin="round"/>
</svg>
