<svg width="26" height="41" viewBox="0 0 26 41" fill="none" xmlns="http://www.w3.org/2000/svg">
<path d="M18.9383 22.5461C18.9383 20.5228 18.2619 18.5824 17.058 17.1518C15.8541 15.7211 14.2212 14.9174 12.5185 14.9174C10.8159 14.9174 9.18303 15.7211 7.97909 17.1518C6.77516 18.5824 6.09879 20.5228 6.09879 22.5461C6.09879 31.4463 2.88892 33.9892 2.88892 33.9892H22.1482C22.1482 33.9892 18.9383 31.4463 18.9383 22.5461Z" stroke="white" stroke-width="2" stroke-linecap="round" stroke-linejoin="round"/>
<path d="M14.4445 38.4767C14.2488 38.818 13.9679 39.1012 13.6299 39.2981C13.2919 39.495 12.9086 39.5986 12.5186 39.5986C12.1285 39.5986 11.7453 39.495 11.4073 39.2981C11.0693 39.1012 10.7884 38.818 10.5927 38.4767" stroke="white" stroke-width="2" stroke-linecap="round" stroke-linejoin="round"/>
<circle cx="19.7407" cy="6.25924" r="4.33333" fill="#EB5757"/>
</svg>
