<svg width="12" height="12" viewBox="0 0 12 12" fill="none" xmlns="http://www.w3.org/2000/svg">
<g clip-path="url(#clip0_47_1474)">
<path d="M4.47666 5.2285C5.19666 6.6435 6.35666 7.7985 7.77166 8.5235L8.87166 7.4235C9.00666 7.2885 9.20666 7.2435 9.38166 7.3035C9.94166 7.4885 10.5467 7.5885 11.1667 7.5885C11.4417 7.5885 11.6667 7.8135 11.6667 8.0885V9.8335C11.6667 10.1085 11.4417 10.3335 11.1667 10.3335C6.47166 10.3335 2.66666 6.5285 2.66666 1.8335C2.66666 1.5585 2.89166 1.3335 3.16666 1.3335H4.91666C5.19166 1.3335 5.41666 1.5585 5.41666 1.8335C5.41666 2.4585 5.51666 3.0585 5.70166 3.6185C5.75666 3.7935 5.71666 3.9885 5.57666 4.1285L4.47666 5.2285Z" fill="#727272"/>
</g>
<defs>
<clipPath id="clip0_47_1474">
<rect width="12" height="12" fill="white"/>
</clipPath>
</defs>
</svg>
