<svg width="60" height="60" viewBox="0 0 60 60" fill="none" xmlns="http://www.w3.org/2000/svg">
<path d="M30.0004 41.381C33.9997 41.381 37.2418 38.1389 37.2418 34.1396C37.2418 30.1403 33.9997 26.8982 30.0004 26.8982C26.001 26.8982 22.7589 30.1403 22.7589 34.1396C22.7589 38.1389 26.001 41.381 30.0004 41.381Z" fill="white"/>
<path d="M51.7299 16.5536H44.9457C44.5113 16.5537 44.0878 16.417 43.7354 16.163C43.383 15.909 43.1195 15.5506 42.9822 15.1384L42.3284 13.175C42.0535 12.351 41.5263 11.6345 40.8215 11.1269C40.1167 10.6193 39.27 10.3463 38.4015 10.3467H21.6075C20.739 10.3469 19.8926 10.6204 19.1882 11.1284C18.4838 11.6363 17.9571 12.3531 17.6826 13.177L17.0288 15.1384C16.8916 15.5506 16.628 15.909 16.2756 16.163C15.9232 16.417 15.4998 16.5537 15.0654 16.5536H8.28116C7.1837 16.5536 6.13119 16.9895 5.35517 17.7656C4.57915 18.5416 4.14319 19.5941 4.14319 20.6915V45.5191C4.14319 46.6165 4.57915 47.669 5.35517 48.4451C6.13119 49.2211 7.1837 49.657 8.28116 49.657H51.7299C52.8273 49.657 53.8798 49.2211 54.6559 48.4451C55.4319 47.669 55.8678 46.6165 55.8678 45.5191V20.6915C55.8678 19.5941 55.4319 18.5416 54.6559 17.7656C53.8798 16.9895 52.8273 16.5536 51.7299 16.5536ZM30.0055 45.5191C23.7324 45.5191 18.6261 40.4129 18.6261 34.1398C18.6261 27.8667 23.7324 22.7605 30.0055 22.7605C36.2787 22.7605 41.3849 27.8667 41.3849 34.1398C41.3849 40.4129 36.2787 45.5191 30.0055 45.5191ZM42.4194 24.8294C41.8707 24.8294 41.3445 24.6115 40.9564 24.2235C40.5684 23.8354 40.3505 23.3092 40.3505 22.7605C40.3505 22.2118 40.5684 21.6855 40.9564 21.2975C41.3445 20.9095 41.8707 20.6915 42.4194 20.6915C42.9682 20.6915 43.4944 20.9095 43.8824 21.2975C44.2704 21.6855 44.4884 22.2118 44.4884 22.7605C44.4884 23.3092 44.2704 23.8354 43.8824 24.2235C43.4944 24.6115 42.9682 24.8294 42.4194 24.8294Z" fill="white"/>
<path d="M11.3835 14.4847H7.24555C6.97119 14.4847 6.70806 14.3757 6.51406 14.1817C6.32005 13.9877 6.21106 13.7246 6.21106 13.4503C6.21106 13.1759 6.32005 12.9128 6.51406 12.7188C6.70806 12.5248 6.97119 12.4158 7.24555 12.4158H11.3835C11.6579 12.4158 11.921 12.5248 12.115 12.7188C12.309 12.9128 12.418 13.1759 12.418 13.4503C12.418 13.7246 12.309 13.9877 12.115 14.1817C11.921 14.3757 11.6579 14.4847 11.3835 14.4847Z" fill="white"/>
</svg>
